<?xml version="1.0" encoding="UTF-8"?>
<svg id="Layer_2" data-name="Layer 2" xmlns="http://www.w3.org/2000/svg" viewBox="0 0 2229.6 2913.78">
  <defs>
    <style>
      .cls-1 {
        letter-spacing: 0em;
      }

      .cls-2 {
        fill: #fff;
        font-family: MyriadPro-Regular, 'Myriad Pro';
        font-size: 128.83px;
      }

      .cls-3 {
        fill: #f7d041;
      }

      .cls-3, .cls-4, .cls-5, .cls-6, .cls-7, .cls-8, .cls-9, .cls-10, .cls-11, .cls-12, .cls-13, .cls-14 {
        stroke-width: 0px;
      }

      .cls-4 {
        fill: #77bc7f;
      }

      .cls-5 {
        fill: #5c5e79;
      }

      .cls-6 {
        fill: #85e58c;
      }

      .cls-7 {
        fill: #892424;
      }

      .cls-8 {
        fill: #a2965f;
      }

      .cls-9 {
        fill: #5763cd;
      }

      .cls-10 {
        fill: #41f774;
      }

      .cls-11 {
        fill: #4252f7;
      }

      .cls-12 {
        fill: #cd3535;
      }

      .cls-13 {
        fill: #cdb358;
      }

      .cls-14 {
        fill: #f74040;
      }
    </style>
  </defs>
  <g id="Layer_1-2" data-name="Layer 1">
    <g>
      <rect class="cls-14" x="2.04" width="630.49" height="630.49"/>
      <rect class="cls-7" x="1598.81" width="630.49" height="630.49"/>
      <rect class="cls-12" x="798.39" width="630.49" height="630.49"/>
      <rect class="cls-3" x="2.34" y="753.42" width="630.49" height="630.49"/>
      <rect class="cls-8" x="1599.11" y="753.42" width="630.49" height="630.49"/>
      <rect class="cls-13" x="798.69" y="753.42" width="630.49" height="630.49"/>
      <rect class="cls-11" y="1520.7" width="630.49" height="630.49"/>
      <rect class="cls-5" x="1596.77" y="1520.7" width="630.49" height="630.49"/>
      <rect class="cls-9" x="796.34" y="1520.7" width="630.49" height="630.49"/>
      <rect class="cls-10" x="2.34" y="2287.98" width="625.8" height="625.8"/>
      <rect class="cls-6" x="801.03" y="2287.98" width="625.8" height="625.8"/>
      <rect class="cls-4" x="1599.11" y="2287.98" width="625.8" height="625.8"/>
      <text class="cls-2" transform="translate(133.56 315.24)"><tspan x="0" y="0">f74040</tspan></text>
      <text class="cls-2" transform="translate(916.95 315.24)"><tspan class="cls-1" x="0" y="0">c</tspan><tspan x="56.94" y="0">d3535</tspan></text>
      <text class="cls-2" transform="translate(1713.75 315.24)"><tspan x="0" y="0">892424</tspan></text>
      <text class="cls-2" transform="translate(1729.99 1068.66)"><tspan x="0" y="0">a2965f</tspan></text>
      <text class="cls-2" transform="translate(911.01 1070.08)"><tspan class="cls-1" x="0" y="0">c</tspan><tspan x="56.94" y="0">db358</tspan></text>
      <text class="cls-2" transform="translate(127.93 1068.66)"><tspan x="0" y="0">f7d041</tspan></text>
      <text class="cls-2" transform="translate(133.06 1846.05)"><tspan x="0" y="0">3e3ef7</tspan></text>
      <text class="cls-2" transform="translate(914.91 1846.05)"><tspan x="0" y="0">5763</tspan><tspan class="cls-1" x="264.35" y="0">c</tspan><tspan x="321.29" y="0">d</tspan></text>
      <text class="cls-2" transform="translate(1716.67 1846.05)"><tspan x="0" y="0">5c5e79</tspan></text>
      <text class="cls-2" transform="translate(1726.53 2599.46)"><tspan x="0" y="0">77bc7f</tspan></text>
      <text class="cls-2" transform="translate(916.24 2600.88)"><tspan x="0" y="0">85e58c</tspan></text>
      <text class="cls-2" transform="translate(129.18 2599.46)"><tspan x="0" y="0">41f774</tspan></text>
    </g>
  </g>
</svg>