<?xml version="1.0" encoding="UTF-8"?>
<svg id="Layer_2" data-name="Layer 2" xmlns="http://www.w3.org/2000/svg" viewBox="0 0 2902.24 2736.16">
  <defs>
    <style>
      .cls-1 {
        fill: #f7d041;
      }

      .cls-1, .cls-2, .cls-3, .cls-4, .cls-5, .cls-6, .cls-7, .cls-8, .cls-9, .cls-10 {
        stroke-width: 0px;
      }

      .cls-2 {
        fill: #5c5e79;
      }

      .cls-3 {
        fill: #892424;
      }

      .cls-4 {
        fill: #a2965f;
      }

      .cls-5 {
        fill: #5763cd;
      }

      .cls-6 {
        fill: #41f774;
      }

      .cls-7 {
        fill: #4252f7;
      }

      .cls-8 {
        fill: #cd3535;
      }

      .cls-9 {
        fill: #cdb358;
      }

      .cls-10 {
        fill: #f74040;
      }
    </style>
  </defs>
  <g id="Layer_1-2" data-name="Layer 1">
    <g>
      <rect class="cls-10" x="2524.63" width="251.74" height="251.74"/>
      <rect class="cls-10" x="2019.7" width="251.74" height="251.74"/>
      <rect class="cls-10" x="1514.78" width="251.74" height="251.74"/>
      <rect class="cls-10" x="1009.85" width="251.74" height="251.74"/>
      <rect class="cls-10" x="504.93" width="251.74" height="251.74"/>
      <rect class="cls-10" width="251.74" height="251.74"/>
      <rect class="cls-8" x="2524.63" y="471.71" width="251.74" height="251.74"/>
      <rect class="cls-1" x="1135.72" y="125.87" width="251.74" height="251.74"/>
      <rect class="cls-1" x="1901.59" y="1792.74" width="251.74" height="251.74"/>
      <rect class="cls-4" x="125.87" y="125.87" width="251.74" height="251.74"/>
      <rect class="cls-9" x="630.8" y="125.87" width="251.74" height="251.74"/>
      <rect class="cls-7" x="2650.5" y="125.87" width="251.74" height="251.74"/>
      <rect class="cls-2" x="1640.65" y="125.87" width="251.74" height="251.74"/>
      <rect class="cls-5" x="2145.57" y="125.87" width="251.74" height="251.74"/>
      <rect class="cls-8" x="2524.63" y="471.71" width="251.74" height="251.74"/>
      <rect class="cls-8" x="2019.7" y="471.71" width="251.74" height="251.74"/>
      <rect class="cls-8" x="1514.78" y="471.71" width="251.74" height="251.74"/>
      <rect class="cls-8" x="1009.85" y="471.71" width="251.74" height="251.74"/>
      <rect class="cls-8" x="504.93" y="471.71" width="251.74" height="251.74"/>
      <rect class="cls-8" y="471.71" width="251.74" height="251.74"/>
      <rect class="cls-1" x="1135.72" y="597.58" width="251.74" height="251.74"/>
      <rect class="cls-4" x="125.87" y="597.58" width="251.74" height="251.74"/>
      <rect class="cls-9" x="630.8" y="597.58" width="251.74" height="251.74"/>
      <rect class="cls-7" x="2650.5" y="597.58" width="251.74" height="251.74"/>
      <rect class="cls-2" x="1640.65" y="597.58" width="251.74" height="251.74"/>
      <rect class="cls-5" x="2145.57" y="597.58" width="251.74" height="251.74"/>
      <rect class="cls-3" x="2524.63" y="943.42" width="251.74" height="251.74"/>
      <rect class="cls-3" x="2019.7" y="943.42" width="251.74" height="251.74"/>
      <rect class="cls-3" x="1514.78" y="943.42" width="251.74" height="251.74"/>
      <rect class="cls-3" x="1009.85" y="943.42" width="251.74" height="251.74"/>
      <rect class="cls-3" x="504.93" y="943.42" width="251.74" height="251.74"/>
      <rect class="cls-3" y="943.42" width="251.74" height="251.74"/>
      <rect class="cls-1" x="1135.72" y="1069.29" width="251.74" height="251.74"/>
      <rect class="cls-4" x="125.87" y="1069.29" width="251.74" height="251.74"/>
      <rect class="cls-9" x="630.8" y="1069.29" width="251.74" height="251.74"/>
      <rect class="cls-7" x="2650.5" y="1069.29" width="251.74" height="251.74"/>
      <rect class="cls-7" y="1415.13" width="251.74" height="251.74"/>
      <rect class="cls-2" x="1640.65" y="1069.29" width="251.74" height="251.74"/>
      <rect class="cls-2" x="0" y="2358.55" width="251.74" height="251.74"/>
      <rect class="cls-5" x="2145.57" y="1069.29" width="251.74" height="251.74"/>
      <rect class="cls-5" y="1886.84" width="251.74" height="251.74"/>
      <rect class="cls-7" x="504.93" y="1415.13" width="251.74" height="251.74"/>
      <rect class="cls-2" x="504.93" y="2358.55" width="251.74" height="251.74"/>
      <rect class="cls-5" x="504.93" y="1886.84" width="251.74" height="251.74"/>
      <rect class="cls-7" x="1009.85" y="1415.13" width="251.74" height="251.74"/>
      <rect class="cls-2" x="1009.85" y="2358.55" width="251.74" height="251.74"/>
      <rect class="cls-5" x="1009.85" y="1886.84" width="251.74" height="251.74"/>
      <rect class="cls-1" x="1135.72" y="1541" width="251.74" height="251.74"/>
      <rect class="cls-4" x="125.87" y="1541" width="251.74" height="251.74"/>
      <rect class="cls-9" x="630.8" y="1541" width="251.74" height="251.74"/>
      <rect class="cls-1" x="1135.72" y="2012.71" width="251.74" height="251.74"/>
      <rect class="cls-4" x="125.87" y="2012.71" width="251.74" height="251.74"/>
      <rect class="cls-9" x="630.8" y="2012.71" width="251.74" height="251.74"/>
      <rect class="cls-1" x="1135.72" y="2484.42" width="251.74" height="251.74"/>
      <rect class="cls-4" x="125.87" y="2484.42" width="251.74" height="251.74"/>
      <rect class="cls-9" x="630.8" y="2484.42" width="251.74" height="251.74"/>
      <rect class="cls-6" x="2027.46" y="1918.61" width="251.74" height="251.74"/>
    </g>
  </g>
</svg>